<?xml version="1.0" standalone="no"?>
<!DOCTYPE svg PUBLIC "-//W3C//DTD SVG 20010904//EN"
 "http://www.w3.org/TR/2001/REC-SVG-20010904/DTD/svg10.dtd">
<svg version="1.0" xmlns="http://www.w3.org/2000/svg"
 width="512.000000pt" height="512.000000pt" viewBox="0 0 512.000000 512.000000"
 preserveAspectRatio="xMidYMid meet">
<metadata>
Created by potrace 1.14, written by Peter Selinger 2001-2017
</metadata>
<g transform="translate(0.000000,512.000000) scale(0.100000,-0.100000)"
fill="#000000" stroke="none">
<path d="M2380 3624 c-138 -35 -249 -80 -286 -115 l-21 -20 50 -212 c27 -117
99 -408 159 -647 60 -239 111 -442 112 -450 2 -8 29 -114 61 -235 31 -121 58
-227 60 -235 44 -189 58 -229 84 -239 46 -18 139 -28 249 -26 154 3 267 33
297 78 8 13 56 124 105 248 50 123 97 238 104 254 7 17 41 101 76 189 l63 158
23 -57 c13 -32 49 -125 80 -209 30 -83 60 -160 64 -171 5 -11 23 -60 40 -110
18 -49 51 -144 75 -210 24 -66 46 -130 50 -142 7 -26 19 -31 111 -42 88 -12
358 -6 411 8 48 13 56 22 71 76 66 245 121 457 227 880 154 611 241 951 262
1028 15 54 15 58 -3 78 -10 11 -46 33 -81 49 -62 29 -79 34 -228 76 -84 23
-93 24 -158 29 -69 5 -86 0 -98 -32 -8 -20 -104 -365 -114 -412 -3 -9 -29
-108 -60 -221 -53 -193 -72 -265 -80 -300 -11 -52 -18 -70 -25 -63 -5 4 -25
49 -45 98 -20 50 -45 108 -55 131 -11 22 -28 63 -39 90 -47 117 -182 419 -192
429 -12 11 -397 13 -442 2 -23 -6 -35 -25 -78 -115 -55 -117 -222 -493 -259
-584 -13 -32 -26 -55 -29 -52 -4 4 -47 163 -85 314 -3 8 -38 146 -80 305 -41
160 -80 312 -86 340 -6 27 -16 55 -22 62 -19 23 -125 14 -268 -23z"/>
<path d="M1127 3624 c-1 -1 -42 -4 -92 -8 -144 -10 -269 -36 -294 -61 -9 -9
-13 -37 -12 -90 1 -43 4 -82 7 -86 7 -12 15 -11 -266 -13 l-245 -1 -12 -26
c-38 -79 -34 -486 5 -556 12 -20 33 -22 325 -26 114 -2 209 -6 212 -9 6 -6 13
-87 20 -253 3 -77 8 -162 10 -190 3 -27 7 -108 10 -180 3 -71 7 -157 9 -190 3
-33 7 -121 11 -195 8 -165 14 -253 20 -258 2 -3 30 -10 62 -18 58 -13 336 -14
413 0 128 22 137 28 134 98 -4 104 -15 344 -19 413 -3 39 -7 113 -10 165 -9
152 -19 315 -31 485 -3 50 -6 92 -6 95 0 3 0 10 1 15 1 7 95 11 278 10 l278 0
12 36 c17 53 26 158 26 304 -1 134 -6 187 -24 243 -9 28 -15 32 -47 33 -20 0
-153 2 -295 3 -142 2 -260 6 -263 8 -3 3 -8 52 -11 109 -3 57 -10 109 -15 116
-5 7 -28 15 -51 18 -42 6 -136 12 -140 9z"/>
</g>
</svg>
